# xmcd
#
# Track frame offsets:
#	150
#	17882
#	34078
#	49016
#	64647
#
# Disc length: 1131 seconds
#
# Revision: 0
# Processed by: cddbd v1.4PL0 Copyright (c) Steve Scherf et al.
# Submitted via: dBpowerAMP V4.0
#
DISCID=39046905
DTITLE=Eviltones - Off the track
DYEAR=2001
DGENRE=Blues
TTITLE0=Off the track
TTITLE1=Toddler's joys
TTITLE2=Beggin' and bleedin'
TTITLE3=Wrong or less than i shoud
TTITLE4=I shall not let you down
EXTD=
EXTT0=
EXTT1=
EXTT2=
EXTT3=
EXTT4=
PLAYORDER=
